<svg xmlns="http://www.w3.org/2000/svg" xmlns:xlink="http://www.w3.org/1999/xlink" width="500" zoomAndPan="magnify" viewBox="0 0 375 374.999991" height="500" preserveAspectRatio="xMidYMid meet" version="1.0"><defs><g/><clipPath id="e129c2c5bd"><path d="M 64 67 L 312.957031 67 L 312.957031 303 L 64 303 Z M 64 67 " clip-rule="nonzero"/></clipPath><clipPath id="ce14ff6b71"><path d="M 312.265625 253.59375 C 311.597656 250.21875 310.023438 247.121094 307.984375 244.324219 C 306.894531 242.832031 305.675781 241.425781 304.390625 240.109375 C 285.277344 220.53125 254.609375 219.601562 229.402344 208.972656 C 240 208.542969 250.359375 211.695312 260.710938 214.003906 C 271.0625 216.3125 282.144531 217.742188 292.074219 214.015625 C 302 210.289062 310.132812 199.898438 307.972656 189.515625 C 306.164062 180.8125 298.027344 174.609375 295.691406 166.03125 C 292.996094 156.132812 298.574219 146.113281 300.753906 136.085938 C 302.914062 126.175781 301.636719 115.550781 297.199219 106.429688 C 294.613281 101.121094 289.125 95.703125 283.625 97.835938 C 277.777344 100.105469 277.839844 108.148438 277.242188 114.390625 C 276.28125 124.433594 270.714844 133.945312 262.429688 139.707031 C 254.140625 145.464844 243.285156 147.363281 233.535156 144.761719 C 239.898438 143.925781 246.355469 143.0625 252.257812 140.539062 C 258.160156 138.015625 263.539062 133.574219 265.726562 127.539062 C 269.058594 118.347656 264.402344 108.386719 263.460938 98.652344 C 262.578125 89.515625 265.164062 80.085938 270.582031 72.679688 C 264.6875 80.4375 257.492188 87.207031 249.386719 92.613281 C 246.5625 94.5 243.40625 96.277344 240.015625 96.121094 C 229.292969 95.625 227.664062 78.527344 217.738281 74.4375 C 225.746094 99.050781 218.902344 127.878906 200.6875 146.269531 C 206.777344 133.464844 212.523438 119.941406 212.332031 105.769531 C 212.140625 91.59375 204.480469 76.585938 191.050781 72.050781 C 184.429688 69.8125 177.1875 70.304688 170.34375 71.703125 C 158.839844 74.058594 147.863281 78.933594 138.40625 85.890625 C 130.8125 91.472656 123.875 99.019531 122.453125 108.335938 C 121.03125 117.652344 127.285156 128.460938 136.691406 129.03125 C 127.082031 131.453125 117.449219 122.132812 116.707031 112.253906 C 115.964844 102.371094 121.820312 93.066406 129.105469 86.34375 C 136.386719 79.621094 145.164062 74.742188 152.824219 68.457031 C 145.535156 66.070312 137.503906 68.761719 130.945312 72.738281 C 117.199219 81.078125 106.972656 96.042969 106.828125 112.117188 C 106.683594 128.195312 118.117188 144.359375 133.921875 147.296875 C 121.699219 147.808594 110.269531 139.207031 105.105469 128.113281 C 99.941406 117.023438 100.273438 104.003906 103.480469 92.195312 C 104.429688 88.703125 105.628906 85.171875 105.347656 81.5625 C 105.0625 77.957031 102.804688 74.191406 99.25 73.511719 C 93.480469 72.417969 89.683594 79.355469 88.441406 85.09375 C 84.402344 103.78125 86.589844 124.074219 96.167969 140.617188 C 105.75 157.164062 123.039062 169.464844 142.066406 171.339844 C 121.078125 170.699219 100.800781 158.535156 90.351562 140.320312 C 80.191406 122.609375 79.230469 100.722656 68.808594 83.160156 C 61.691406 119.792969 72.355469 159.464844 96.878906 187.59375 C 86.074219 184.757812 74.414062 191.734375 69.132812 201.578125 C 63.851562 211.421875 63.867188 223.316406 66.007812 234.28125 C 68.542969 247.285156 74.261719 260.222656 84.675781 268.414062 C 95.089844 276.605469 110.824219 278.824219 121.644531 271.179688 C 131.953125 263.902344 135.347656 250.324219 137.171875 237.839844 C 139.917969 249.578125 137.386719 262.449219 130.398438 272.269531 C 123.410156 282.09375 112.082031 288.707031 100.089844 289.964844 C 114.089844 296.117188 130.851562 293.542969 144.136719 285.96875 C 155.761719 279.34375 165.035156 269.304688 172.746094 258.304688 C 173.933594 256.851562 175.085938 255.382812 176.632812 254.484375 C 176.207031 255.769531 176.039062 257.292969 176.121094 258.984375 C 177.25 271.644531 183.597656 283.824219 193.480469 291.851562 C 209.609375 304.949219 243.988281 308.882812 256.28125 288.300781 C 260.769531 280.789062 260.867188 270.644531 255.84375 263.476562 C 250.820312 256.3125 240.65625 252.976562 232.636719 256.480469 C 237.554688 244.332031 253.914062 238.464844 265.433594 244.722656 C 273.125 248.898438 277.796875 256.921875 284.074219 263.023438 C 290.351562 269.121094 300.683594 273.238281 307.613281 267.894531 C 311.796875 264.671875 313.289062 258.773438 312.265625 253.59375 Z M 183.566406 191.140625 C 171.859375 197.363281 157.722656 190.574219 152.066406 179.265625 C 149.804688 174.175781 149.238281 167.390625 153.761719 162.867188 C 158.851562 169.085938 163.941406 178.699219 173.554688 175.871094 C 178.078125 174.742188 178.644531 168.519531 183.167969 166.824219 C 187.695312 165.691406 191.085938 169.085938 192.78125 173.042969 C 194.480469 178.132812 192.21875 184.921875 187.914062 188.1875 C 186.636719 189.355469 185.175781 190.351562 183.566406 191.140625 Z M 199.332031 262.371094 C 197.488281 261.902344 195.886719 261.121094 194.488281 260.09375 C 193.085938 259.070312 191.890625 257.800781 190.847656 256.355469 C 192.21875 245.429688 187.695312 236.945312 184.300781 226.769531 C 182.605469 222.242188 183.167969 215.457031 188.257812 214.890625 C 204.660156 213.195312 218.230469 230.726562 211.398438 246.425781 C 210.492188 248.832031 209.945312 250.621094 209.324219 252.234375 C 208.074219 255.464844 206.015625 258.453125 202.960938 261.003906 C 201.738281 261.78125 200.511719 262.246094 199.332031 262.371094 Z M 199.332031 262.371094 " clip-rule="nonzero"/></clipPath><radialGradient gradientTransform="matrix(-0.194657, -0.209143, -1.254916, 1.167888, 718.621077, -654.870284)" gradientUnits="userSpaceOnUse" r="1879.391916" cx="-1054.93873" id="4aac3cea91" cy="553.640413" fx="-1054.93873" fy="553.640413"><stop stop-opacity="1" stop-color="rgb(71.099854%, 68.099976%, 90.151978%)" offset="0"/><stop stop-opacity="1" stop-color="rgb(71.432495%, 67.778015%, 90.000916%)" offset="0.0117188"/><stop stop-opacity="1" stop-color="rgb(71.891785%, 67.329407%, 89.788818%)" offset="0.015625"/><stop stop-opacity="1" stop-color="rgb(72.3526%, 66.882324%, 89.578247%)" offset="0.0195312"/><stop stop-opacity="1" stop-color="rgb(72.813416%, 66.435242%, 89.36615%)" offset="0.0234375"/><stop stop-opacity="1" stop-color="rgb(73.274231%, 65.986633%, 89.155579%)" offset="0.0273438"/><stop stop-opacity="1" stop-color="rgb(73.735046%, 65.539551%, 88.945007%)" offset="0.03125"/><stop stop-opacity="1" stop-color="rgb(74.194336%, 65.090942%, 88.73291%)" offset="0.0351562"/><stop stop-opacity="1" stop-color="rgb(74.655151%, 64.64386%, 88.522339%)" offset="0.0390625"/><stop stop-opacity="1" stop-color="rgb(75.115967%, 64.195251%, 88.310242%)" offset="0.0429688"/><stop stop-opacity="1" stop-color="rgb(75.576782%, 63.748169%, 88.09967%)" offset="0.046875"/><stop stop-opacity="1" stop-color="rgb(76.037598%, 63.299561%, 87.889099%)" offset="0.0507812"/><stop stop-opacity="1" stop-color="rgb(76.496887%, 62.852478%, 87.677002%)" offset="0.0546875"/><stop stop-opacity="1" stop-color="rgb(76.957703%, 62.40387%, 87.466431%)" offset="0.0585938"/><stop stop-opacity="1" stop-color="rgb(77.418518%, 61.956787%, 87.254333%)" offset="0.0625"/><stop stop-opacity="1" stop-color="rgb(77.879333%, 61.508179%, 87.043762%)" offset="0.0664062"/><stop stop-opacity="1" stop-color="rgb(78.338623%, 61.061096%, 86.833191%)" offset="0.0703125"/><stop stop-opacity="1" stop-color="rgb(78.799438%, 60.614014%, 86.621094%)" offset="0.0742188"/><stop stop-opacity="1" stop-color="rgb(79.260254%, 60.165405%, 86.410522%)" offset="0.078125"/><stop stop-opacity="1" stop-color="rgb(79.721069%, 59.718323%, 86.198425%)" offset="0.0820312"/><stop stop-opacity="1" stop-color="rgb(80.181885%, 59.269714%, 85.987854%)" offset="0.0859375"/><stop stop-opacity="1" stop-color="rgb(80.641174%, 58.822632%, 85.777283%)" offset="0.0898438"/><stop stop-opacity="1" stop-color="rgb(81.10199%, 58.374023%, 85.565186%)" offset="0.09375"/><stop stop-opacity="1" stop-color="rgb(81.562805%, 57.926941%, 85.354614%)" offset="0.0976562"/><stop stop-opacity="1" stop-color="rgb(82.023621%, 57.478333%, 85.142517%)" offset="0.101562"/><stop stop-opacity="1" stop-color="rgb(82.484436%, 57.03125%, 84.931946%)" offset="0.105469"/><stop stop-opacity="1" stop-color="rgb(82.943726%, 56.582642%, 84.721375%)" offset="0.109375"/><stop stop-opacity="1" stop-color="rgb(83.404541%, 56.135559%, 84.509277%)" offset="0.113281"/><stop stop-opacity="1" stop-color="rgb(83.865356%, 55.686951%, 84.298706%)" offset="0.117188"/><stop stop-opacity="1" stop-color="rgb(84.326172%, 55.239868%, 84.086609%)" offset="0.121094"/><stop stop-opacity="1" stop-color="rgb(84.786987%, 54.79126%, 83.876038%)" offset="0.125"/><stop stop-opacity="1" stop-color="rgb(85.246277%, 54.344177%, 83.66394%)" offset="0.128906"/><stop stop-opacity="1" stop-color="rgb(85.707092%, 53.897095%, 83.453369%)" offset="0.132812"/><stop stop-opacity="1" stop-color="rgb(86.167908%, 53.448486%, 83.242798%)" offset="0.136719"/><stop stop-opacity="1" stop-color="rgb(86.628723%, 53.001404%, 83.030701%)" offset="0.140625"/><stop stop-opacity="1" stop-color="rgb(87.088013%, 52.552795%, 82.820129%)" offset="0.144531"/><stop stop-opacity="1" stop-color="rgb(87.548828%, 52.105713%, 82.608032%)" offset="0.148438"/><stop stop-opacity="1" stop-color="rgb(88.009644%, 51.657104%, 82.397461%)" offset="0.152344"/><stop stop-opacity="1" stop-color="rgb(88.470459%, 51.210022%, 82.18689%)" offset="0.15625"/><stop stop-opacity="1" stop-color="rgb(88.931274%, 50.761414%, 81.974792%)" offset="0.160156"/><stop stop-opacity="1" stop-color="rgb(89.390564%, 50.314331%, 81.764221%)" offset="0.164062"/><stop stop-opacity="1" stop-color="rgb(89.851379%, 49.865723%, 81.552124%)" offset="0.167969"/><stop stop-opacity="1" stop-color="rgb(90.312195%, 49.41864%, 81.341553%)" offset="0.171875"/><stop stop-opacity="1" stop-color="rgb(90.77301%, 48.970032%, 81.130981%)" offset="0.175781"/><stop stop-opacity="1" stop-color="rgb(91.233826%, 48.522949%, 80.918884%)" offset="0.179688"/><stop stop-opacity="1" stop-color="rgb(91.693115%, 48.075867%, 80.708313%)" offset="0.183594"/><stop stop-opacity="1" stop-color="rgb(92.153931%, 47.627258%, 80.496216%)" offset="0.1875"/><stop stop-opacity="1" stop-color="rgb(92.614746%, 47.180176%, 80.285645%)" offset="0.191406"/><stop stop-opacity="1" stop-color="rgb(93.075562%, 46.731567%, 80.075073%)" offset="0.195312"/><stop stop-opacity="1" stop-color="rgb(93.534851%, 46.284485%, 79.862976%)" offset="0.199219"/><stop stop-opacity="1" stop-color="rgb(93.995667%, 45.835876%, 79.652405%)" offset="0.203125"/><stop stop-opacity="1" stop-color="rgb(94.456482%, 45.388794%, 79.440308%)" offset="0.207031"/><stop stop-opacity="1" stop-color="rgb(94.917297%, 44.940186%, 79.229736%)" offset="0.210938"/><stop stop-opacity="1" stop-color="rgb(95.378113%, 44.493103%, 79.019165%)" offset="0.214844"/><stop stop-opacity="1" stop-color="rgb(95.837402%, 44.044495%, 78.807068%)" offset="0.21875"/><stop stop-opacity="1" stop-color="rgb(96.298218%, 43.597412%, 78.596497%)" offset="0.222656"/><stop stop-opacity="1" stop-color="rgb(96.759033%, 43.148804%, 78.384399%)" offset="0.226562"/><stop stop-opacity="1" stop-color="rgb(97.219849%, 42.701721%, 78.173828%)" offset="0.230469"/><stop stop-opacity="1" stop-color="rgb(97.680664%, 42.254639%, 77.961731%)" offset="0.234375"/><stop stop-opacity="1" stop-color="rgb(98.139954%, 41.80603%, 77.75116%)" offset="0.238281"/><stop stop-opacity="1" stop-color="rgb(98.600769%, 41.358948%, 77.540588%)" offset="0.242188"/><stop stop-opacity="1" stop-color="rgb(99.061584%, 40.910339%, 77.328491%)" offset="0.246094"/><stop stop-opacity="1" stop-color="rgb(99.5224%, 40.463257%, 77.11792%)" offset="0.25"/><stop stop-opacity="1" stop-color="rgb(99.685669%, 40.304565%, 77.043152%)" offset="0.253906"/><stop stop-opacity="1" stop-color="rgb(99.208069%, 40.768433%, 77.261353%)" offset="0.257812"/><stop stop-opacity="1" stop-color="rgb(98.387146%, 41.566467%, 77.638245%)" offset="0.261719"/><stop stop-opacity="1" stop-color="rgb(97.566223%, 42.364502%, 78.015137%)" offset="0.265625"/><stop stop-opacity="1" stop-color="rgb(96.7453%, 43.162537%, 78.390503%)" offset="0.269531"/><stop stop-opacity="1" stop-color="rgb(95.924377%, 43.960571%, 78.767395%)" offset="0.273438"/><stop stop-opacity="1" stop-color="rgb(95.103455%, 44.758606%, 79.144287%)" offset="0.277344"/><stop stop-opacity="1" stop-color="rgb(94.282532%, 45.558167%, 79.521179%)" offset="0.28125"/><stop stop-opacity="1" stop-color="rgb(93.461609%, 46.356201%, 79.896545%)" offset="0.285156"/><stop stop-opacity="1" stop-color="rgb(92.640686%, 47.154236%, 80.273438%)" offset="0.289062"/><stop stop-opacity="1" stop-color="rgb(91.819763%, 47.952271%, 80.65033%)" offset="0.292969"/><stop stop-opacity="1" stop-color="rgb(90.99884%, 48.750305%, 81.025696%)" offset="0.296875"/><stop stop-opacity="1" stop-color="rgb(90.177917%, 49.54834%, 81.402588%)" offset="0.300781"/><stop stop-opacity="1" stop-color="rgb(89.356995%, 50.346375%, 81.77948%)" offset="0.304688"/><stop stop-opacity="1" stop-color="rgb(88.536072%, 51.144409%, 82.156372%)" offset="0.308594"/><stop stop-opacity="1" stop-color="rgb(87.715149%, 51.94397%, 82.531738%)" offset="0.3125"/><stop stop-opacity="1" stop-color="rgb(86.894226%, 52.742004%, 82.90863%)" offset="0.316406"/><stop stop-opacity="1" stop-color="rgb(86.073303%, 53.540039%, 83.285522%)" offset="0.320312"/><stop stop-opacity="1" stop-color="rgb(85.25238%, 54.338074%, 83.660889%)" offset="0.324219"/><stop stop-opacity="1" stop-color="rgb(84.431458%, 55.136108%, 84.037781%)" offset="0.328125"/><stop stop-opacity="1" stop-color="rgb(83.610535%, 55.934143%, 84.414673%)" offset="0.332031"/><stop stop-opacity="1" stop-color="rgb(82.789612%, 56.732178%, 84.791565%)" offset="0.335938"/><stop stop-opacity="1" stop-color="rgb(81.968689%, 57.530212%, 85.166931%)" offset="0.339844"/><stop stop-opacity="1" stop-color="rgb(81.149292%, 58.329773%, 85.543823%)" offset="0.34375"/><stop stop-opacity="1" stop-color="rgb(80.328369%, 59.127808%, 85.920715%)" offset="0.347656"/><stop stop-opacity="1" stop-color="rgb(79.507446%, 59.925842%, 86.297607%)" offset="0.351562"/><stop stop-opacity="1" stop-color="rgb(78.686523%, 60.723877%, 86.672974%)" offset="0.355469"/><stop stop-opacity="1" stop-color="rgb(77.865601%, 61.521912%, 87.049866%)" offset="0.359375"/><stop stop-opacity="1" stop-color="rgb(77.044678%, 62.319946%, 87.426758%)" offset="0.363281"/><stop stop-opacity="1" stop-color="rgb(76.223755%, 63.117981%, 87.802124%)" offset="0.367188"/><stop stop-opacity="1" stop-color="rgb(75.402832%, 63.917542%, 88.179016%)" offset="0.371094"/><stop stop-opacity="1" stop-color="rgb(74.581909%, 64.715576%, 88.555908%)" offset="0.375"/><stop stop-opacity="1" stop-color="rgb(73.760986%, 65.513611%, 88.9328%)" offset="0.378906"/><stop stop-opacity="1" stop-color="rgb(72.940063%, 66.311646%, 89.308167%)" offset="0.382812"/><stop stop-opacity="1" stop-color="rgb(72.119141%, 67.10968%, 89.685059%)" offset="0.386719"/><stop stop-opacity="1" stop-color="rgb(71.412659%, 67.796326%, 90.008545%)" offset="0.390625"/><stop stop-opacity="1" stop-color="rgb(71.55304%, 67.660522%, 89.944458%)" offset="0.394531"/><stop stop-opacity="1" stop-color="rgb(72.424316%, 66.812134%, 89.544678%)" offset="0.398438"/><stop stop-opacity="1" stop-color="rgb(73.295593%, 65.965271%, 89.146423%)" offset="0.402344"/><stop stop-opacity="1" stop-color="rgb(74.16687%, 65.118408%, 88.746643%)" offset="0.40625"/><stop stop-opacity="1" stop-color="rgb(75.038147%, 64.27002%, 88.346863%)" offset="0.410156"/><stop stop-opacity="1" stop-color="rgb(75.909424%, 63.423157%, 87.947083%)" offset="0.414062"/><stop stop-opacity="1" stop-color="rgb(76.780701%, 62.576294%, 87.547302%)" offset="0.417969"/><stop stop-opacity="1" stop-color="rgb(77.651978%, 61.727905%, 87.147522%)" offset="0.421875"/><stop stop-opacity="1" stop-color="rgb(78.523254%, 60.881042%, 86.747742%)" offset="0.425781"/><stop stop-opacity="1" stop-color="rgb(79.394531%, 60.03418%, 86.347961%)" offset="0.429688"/><stop stop-opacity="1" stop-color="rgb(80.267334%, 59.185791%, 85.948181%)" offset="0.433594"/><stop stop-opacity="1" stop-color="rgb(81.138611%, 58.338928%, 85.548401%)" offset="0.4375"/><stop stop-opacity="1" stop-color="rgb(82.009888%, 57.492065%, 85.148621%)" offset="0.441406"/><stop stop-opacity="1" stop-color="rgb(82.881165%, 56.643677%, 84.750366%)" offset="0.445312"/><stop stop-opacity="1" stop-color="rgb(83.752441%, 55.796814%, 84.350586%)" offset="0.449219"/><stop stop-opacity="1" stop-color="rgb(84.623718%, 54.949951%, 83.950806%)" offset="0.453125"/><stop stop-opacity="1" stop-color="rgb(85.494995%, 54.101562%, 83.551025%)" offset="0.457031"/><stop stop-opacity="1" stop-color="rgb(86.366272%, 53.2547%, 83.151245%)" offset="0.460938"/><stop stop-opacity="1" stop-color="rgb(87.237549%, 52.407837%, 82.751465%)" offset="0.464844"/><stop stop-opacity="1" stop-color="rgb(88.108826%, 51.559448%, 82.351685%)" offset="0.46875"/><stop stop-opacity="1" stop-color="rgb(88.980103%, 50.712585%, 81.951904%)" offset="0.472656"/><stop stop-opacity="1" stop-color="rgb(89.851379%, 49.865723%, 81.552124%)" offset="0.476562"/><stop stop-opacity="1" stop-color="rgb(90.722656%, 49.017334%, 81.152344%)" offset="0.480469"/><stop stop-opacity="1" stop-color="rgb(91.595459%, 48.170471%, 80.752563%)" offset="0.484375"/><stop stop-opacity="1" stop-color="rgb(92.466736%, 47.323608%, 80.354309%)" offset="0.488281"/><stop stop-opacity="1" stop-color="rgb(93.338013%, 46.47522%, 79.954529%)" offset="0.492188"/><stop stop-opacity="1" stop-color="rgb(94.20929%, 45.628357%, 79.554749%)" offset="0.496094"/><stop stop-opacity="1" stop-color="rgb(95.080566%, 44.781494%, 79.154968%)" offset="0.5"/><stop stop-opacity="1" stop-color="rgb(95.951843%, 43.933105%, 78.755188%)" offset="0.503906"/><stop stop-opacity="1" stop-color="rgb(96.82312%, 43.086243%, 78.355408%)" offset="0.507812"/><stop stop-opacity="1" stop-color="rgb(97.694397%, 42.23938%, 77.955627%)" offset="0.511719"/><stop stop-opacity="1" stop-color="rgb(98.565674%, 41.392517%, 77.555847%)" offset="0.515625"/><stop stop-opacity="1" stop-color="rgb(99.436951%, 40.544128%, 77.156067%)" offset="0.519531"/><stop stop-opacity="1" stop-color="rgb(99.647522%, 40.341187%, 77.059937%)" offset="0.523438"/><stop stop-opacity="1" stop-color="rgb(99.084473%, 40.887451%, 77.31781%)" offset="0.527344"/><stop stop-opacity="1" stop-color="rgb(98.410034%, 41.543579%, 77.627563%)" offset="0.53125"/><stop stop-opacity="1" stop-color="rgb(97.735596%, 42.199707%, 77.937317%)" offset="0.535156"/><stop stop-opacity="1" stop-color="rgb(97.062683%, 42.855835%, 78.245544%)" offset="0.539062"/><stop stop-opacity="1" stop-color="rgb(96.388245%, 43.510437%, 78.555298%)" offset="0.542969"/><stop stop-opacity="1" stop-color="rgb(95.713806%, 44.166565%, 78.865051%)" offset="0.546875"/><stop stop-opacity="1" stop-color="rgb(95.039368%, 44.822693%, 79.173279%)" offset="0.550781"/><stop stop-opacity="1" stop-color="rgb(94.364929%, 45.477295%, 79.483032%)" offset="0.554688"/><stop stop-opacity="1" stop-color="rgb(93.690491%, 46.133423%, 79.792786%)" offset="0.558594"/><stop stop-opacity="1" stop-color="rgb(93.016052%, 46.789551%, 80.101013%)" offset="0.5625"/><stop stop-opacity="1" stop-color="rgb(92.341614%, 47.445679%, 80.410767%)" offset="0.566406"/><stop stop-opacity="1" stop-color="rgb(91.667175%, 48.100281%, 80.718994%)" offset="0.570312"/><stop stop-opacity="1" stop-color="rgb(90.992737%, 48.756409%, 81.028748%)" offset="0.574219"/><stop stop-opacity="1" stop-color="rgb(90.318298%, 49.412537%, 81.338501%)" offset="0.578125"/><stop stop-opacity="1" stop-color="rgb(89.645386%, 50.067139%, 81.646729%)" offset="0.582031"/><stop stop-opacity="1" stop-color="rgb(88.970947%, 50.723267%, 81.956482%)" offset="0.585938"/><stop stop-opacity="1" stop-color="rgb(88.296509%, 51.379395%, 82.266235%)" offset="0.589844"/><stop stop-opacity="1" stop-color="rgb(87.62207%, 52.035522%, 82.574463%)" offset="0.59375"/><stop stop-opacity="1" stop-color="rgb(86.947632%, 52.690125%, 82.884216%)" offset="0.597656"/><stop stop-opacity="1" stop-color="rgb(86.273193%, 53.346252%, 83.19397%)" offset="0.601562"/><stop stop-opacity="1" stop-color="rgb(85.598755%, 54.00238%, 83.502197%)" offset="0.605469"/><stop stop-opacity="1" stop-color="rgb(84.924316%, 54.656982%, 83.811951%)" offset="0.609375"/><stop stop-opacity="1" stop-color="rgb(84.249878%, 55.31311%, 84.121704%)" offset="0.613281"/><stop stop-opacity="1" stop-color="rgb(83.575439%, 55.969238%, 84.429932%)" offset="0.617188"/><stop stop-opacity="1" stop-color="rgb(82.902527%, 56.625366%, 84.739685%)" offset="0.621094"/><stop stop-opacity="1" stop-color="rgb(82.228088%, 57.279968%, 85.049438%)" offset="0.625"/><stop stop-opacity="1" stop-color="rgb(81.55365%, 57.936096%, 85.357666%)" offset="0.628906"/><stop stop-opacity="1" stop-color="rgb(80.879211%, 58.592224%, 85.667419%)" offset="0.632812"/><stop stop-opacity="1" stop-color="rgb(80.204773%, 59.246826%, 85.977173%)" offset="0.636719"/><stop stop-opacity="1" stop-color="rgb(79.530334%, 59.902954%, 86.2854%)" offset="0.640625"/><stop stop-opacity="1" stop-color="rgb(78.855896%, 60.559082%, 86.595154%)" offset="0.644531"/><stop stop-opacity="1" stop-color="rgb(78.181458%, 61.21521%, 86.904907%)" offset="0.648438"/><stop stop-opacity="1" stop-color="rgb(77.507019%, 61.869812%, 87.213135%)" offset="0.652344"/><stop stop-opacity="1" stop-color="rgb(76.832581%, 62.52594%, 87.522888%)" offset="0.65625"/><stop stop-opacity="1" stop-color="rgb(76.158142%, 63.182068%, 87.832642%)" offset="0.660156"/><stop stop-opacity="1" stop-color="rgb(75.485229%, 63.83667%, 88.140869%)" offset="0.664062"/><stop stop-opacity="1" stop-color="rgb(74.810791%, 64.492798%, 88.450623%)" offset="0.667969"/><stop stop-opacity="1" stop-color="rgb(74.136353%, 65.148926%, 88.760376%)" offset="0.671875"/><stop stop-opacity="1" stop-color="rgb(73.461914%, 65.805054%, 89.068604%)" offset="0.675781"/><stop stop-opacity="1" stop-color="rgb(72.787476%, 66.459656%, 89.378357%)" offset="0.679688"/><stop stop-opacity="1" stop-color="rgb(72.113037%, 67.115784%, 89.68811%)" offset="0.683594"/><stop stop-opacity="1" stop-color="rgb(71.438599%, 67.771912%, 89.996338%)" offset="0.6875"/><stop stop-opacity="1" stop-color="rgb(71.342468%, 67.86499%, 90.040588%)" offset="0.691406"/><stop stop-opacity="1" stop-color="rgb(71.929932%, 67.294312%, 89.772034%)" offset="0.695312"/><stop stop-opacity="1" stop-color="rgb(72.621155%, 66.621399%, 89.454651%)" offset="0.699219"/><stop stop-opacity="1" stop-color="rgb(73.310852%, 65.950012%, 89.138794%)" offset="0.703125"/><stop stop-opacity="1" stop-color="rgb(74.002075%, 65.278625%, 88.821411%)" offset="0.707031"/><stop stop-opacity="1" stop-color="rgb(74.693298%, 64.607239%, 88.504028%)" offset="0.710938"/><stop stop-opacity="1" stop-color="rgb(75.382996%, 63.935852%, 88.188171%)" offset="0.714844"/><stop stop-opacity="1" stop-color="rgb(76.074219%, 63.262939%, 87.870789%)" offset="0.71875"/><stop stop-opacity="1" stop-color="rgb(76.765442%, 62.591553%, 87.554932%)" offset="0.722656"/><stop stop-opacity="1" stop-color="rgb(77.455139%, 61.920166%, 87.237549%)" offset="0.726562"/><stop stop-opacity="1" stop-color="rgb(78.146362%, 61.248779%, 86.920166%)" offset="0.730469"/><stop stop-opacity="1" stop-color="rgb(78.837585%, 60.577393%, 86.604309%)" offset="0.734375"/><stop stop-opacity="1" stop-color="rgb(79.527283%, 59.90448%, 86.286926%)" offset="0.738281"/><stop stop-opacity="1" stop-color="rgb(80.218506%, 59.233093%, 85.971069%)" offset="0.742188"/><stop stop-opacity="1" stop-color="rgb(80.909729%, 58.561707%, 85.653687%)" offset="0.746094"/><stop stop-opacity="1" stop-color="rgb(81.599426%, 57.89032%, 85.336304%)" offset="0.75"/><stop stop-opacity="1" stop-color="rgb(82.290649%, 57.218933%, 85.020447%)" offset="0.753906"/><stop stop-opacity="1" stop-color="rgb(82.981873%, 56.546021%, 84.703064%)" offset="0.757812"/><stop stop-opacity="1" stop-color="rgb(83.673096%, 55.874634%, 84.387207%)" offset="0.761719"/><stop stop-opacity="1" stop-color="rgb(84.362793%, 55.203247%, 84.069824%)" offset="0.765625"/><stop stop-opacity="1" stop-color="rgb(85.054016%, 54.53186%, 83.752441%)" offset="0.769531"/><stop stop-opacity="1" stop-color="rgb(85.745239%, 53.860474%, 83.436584%)" offset="0.773438"/><stop stop-opacity="1" stop-color="rgb(86.434937%, 53.187561%, 83.119202%)" offset="0.777344"/><stop stop-opacity="1" stop-color="rgb(87.12616%, 52.516174%, 82.803345%)" offset="0.78125"/><stop stop-opacity="1" stop-color="rgb(87.817383%, 51.844788%, 82.485962%)" offset="0.785156"/><stop stop-opacity="1" stop-color="rgb(88.50708%, 51.173401%, 82.168579%)" offset="0.789062"/><stop stop-opacity="1" stop-color="rgb(89.198303%, 50.502014%, 81.852722%)" offset="0.792969"/><stop stop-opacity="1" stop-color="rgb(89.889526%, 49.830627%, 81.535339%)" offset="0.796875"/><stop stop-opacity="1" stop-color="rgb(90.579224%, 49.157715%, 81.217957%)" offset="0.800781"/><stop stop-opacity="1" stop-color="rgb(91.270447%, 48.486328%, 80.9021%)" offset="0.804688"/><stop stop-opacity="1" stop-color="rgb(91.96167%, 47.814941%, 80.584717%)" offset="0.808594"/><stop stop-opacity="1" stop-color="rgb(92.651367%, 47.143555%, 80.26886%)" offset="0.8125"/><stop stop-opacity="1" stop-color="rgb(93.34259%, 46.472168%, 79.951477%)" offset="0.816406"/><stop stop-opacity="1" stop-color="rgb(94.033813%, 45.799255%, 79.634094%)" offset="0.820312"/><stop stop-opacity="1" stop-color="rgb(94.723511%, 45.127869%, 79.318237%)" offset="0.824219"/><stop stop-opacity="1" stop-color="rgb(95.414734%, 44.456482%, 79.000854%)" offset="0.828125"/><stop stop-opacity="1" stop-color="rgb(96.105957%, 43.785095%, 78.684998%)" offset="0.832031"/><stop stop-opacity="1" stop-color="rgb(96.79718%, 43.113708%, 78.367615%)" offset="0.835938"/><stop stop-opacity="1" stop-color="rgb(97.486877%, 42.440796%, 78.050232%)" offset="0.839844"/><stop stop-opacity="1" stop-color="rgb(98.178101%, 41.769409%, 77.734375%)" offset="0.84375"/><stop stop-opacity="1" stop-color="rgb(98.869324%, 41.098022%, 77.416992%)" offset="0.847656"/><stop stop-opacity="1" stop-color="rgb(99.559021%, 40.426636%, 77.101135%)" offset="0.851562"/><stop stop-opacity="1" stop-color="rgb(99.612427%, 40.374756%, 77.076721%)" offset="0.855469"/><stop stop-opacity="1" stop-color="rgb(98.925781%, 41.041565%, 77.391052%)" offset="0.859375"/><stop stop-opacity="1" stop-color="rgb(98.139954%, 41.807556%, 77.75116%)" offset="0.863281"/><stop stop-opacity="1" stop-color="rgb(97.3526%, 42.572021%, 78.112793%)" offset="0.867188"/><stop stop-opacity="1" stop-color="rgb(96.565247%, 43.336487%, 78.4729%)" offset="0.871094"/><stop stop-opacity="1" stop-color="rgb(95.779419%, 44.102478%, 78.834534%)" offset="0.875"/><stop stop-opacity="1" stop-color="rgb(94.992065%, 44.866943%, 79.194641%)" offset="0.878906"/><stop stop-opacity="1" stop-color="rgb(94.206238%, 45.631409%, 79.556274%)" offset="0.882812"/><stop stop-opacity="1" stop-color="rgb(93.418884%, 46.3974%, 79.916382%)" offset="0.886719"/><stop stop-opacity="1" stop-color="rgb(92.633057%, 47.161865%, 80.278015%)" offset="0.890625"/><stop stop-opacity="1" stop-color="rgb(91.845703%, 47.926331%, 80.638123%)" offset="0.894531"/><stop stop-opacity="1" stop-color="rgb(91.059875%, 48.692322%, 80.99823%)" offset="0.898438"/><stop stop-opacity="1" stop-color="rgb(90.272522%, 49.456787%, 81.359863%)" offset="0.902344"/><stop stop-opacity="1" stop-color="rgb(89.485168%, 50.221252%, 81.719971%)" offset="0.90625"/><stop stop-opacity="1" stop-color="rgb(88.699341%, 50.987244%, 82.081604%)" offset="0.910156"/><stop stop-opacity="1" stop-color="rgb(87.911987%, 51.751709%, 82.441711%)" offset="0.914062"/><stop stop-opacity="1" stop-color="rgb(87.12616%, 52.516174%, 82.803345%)" offset="0.917969"/><stop stop-opacity="1" stop-color="rgb(86.338806%, 53.282166%, 83.163452%)" offset="0.921875"/><stop stop-opacity="1" stop-color="rgb(85.552979%, 54.046631%, 83.525085%)" offset="0.925781"/><stop stop-opacity="1" stop-color="rgb(84.765625%, 54.811096%, 83.885193%)" offset="0.929688"/><stop stop-opacity="1" stop-color="rgb(83.979797%, 55.577087%, 84.2453%)" offset="0.933594"/><stop stop-opacity="1" stop-color="rgb(83.192444%, 56.341553%, 84.606934%)" offset="0.9375"/><stop stop-opacity="1" stop-color="rgb(82.40509%, 57.106018%, 84.967041%)" offset="0.941406"/><stop stop-opacity="1" stop-color="rgb(81.619263%, 57.872009%, 85.328674%)" offset="0.945312"/><stop stop-opacity="1" stop-color="rgb(80.831909%, 58.636475%, 85.688782%)" offset="0.949219"/><stop stop-opacity="1" stop-color="rgb(80.046082%, 59.40094%, 86.050415%)" offset="0.953125"/><stop stop-opacity="1" stop-color="rgb(79.258728%, 60.166931%, 86.410522%)" offset="0.957031"/><stop stop-opacity="1" stop-color="rgb(78.4729%, 60.931396%, 86.772156%)" offset="0.960938"/><stop stop-opacity="1" stop-color="rgb(77.685547%, 61.695862%, 87.132263%)" offset="0.964844"/><stop stop-opacity="1" stop-color="rgb(76.899719%, 62.461853%, 87.492371%)" offset="0.96875"/><stop stop-opacity="1" stop-color="rgb(76.112366%, 63.226318%, 87.854004%)" offset="0.972656"/><stop stop-opacity="1" stop-color="rgb(75.325012%, 63.990784%, 88.214111%)" offset="0.976562"/><stop stop-opacity="1" stop-color="rgb(74.539185%, 64.756775%, 88.575745%)" offset="0.980469"/><stop stop-opacity="1" stop-color="rgb(73.751831%, 65.52124%, 88.935852%)" offset="0.984375"/><stop stop-opacity="1" stop-color="rgb(72.966003%, 66.285706%, 89.297485%)" offset="0.988281"/><stop stop-opacity="1" stop-color="rgb(72.17865%, 67.051697%, 89.657593%)" offset="0.992188"/><stop stop-opacity="1" stop-color="rgb(71.392822%, 67.816162%, 90.019226%)" offset="0.996094"/><stop stop-opacity="1" stop-color="rgb(70.999146%, 68.199158%, 90.19928%)" offset="1"/></radialGradient><clipPath id="f7b28bfaae"><path d="M 55 103 L 208 103 L 208 152 L 55 152 Z M 55 103 " clip-rule="nonzero"/></clipPath><clipPath id="bd026efb9e"><path d="M 62.027344 97.277344 L 210.796875 116.457031 L 204.273438 167.039062 L 55.503906 147.859375 Z M 62.027344 97.277344 " clip-rule="nonzero"/></clipPath><clipPath id="f05a795df5"><path d="M 62.027344 97.277344 L 210.796875 116.457031 L 204.273438 167.039062 L 55.503906 147.859375 Z M 62.027344 97.277344 " clip-rule="nonzero"/></clipPath></defs><g clip-path="url(#e129c2c5bd)"><g clip-path="url(#ce14ff6b71)"><path fill="url(#4aac3cea91)" d="M 434.058594 196.183594 L 178.324219 434.179688 L -59.394531 178.773438 L 196.339844 -59.226562 Z M 434.058594 196.183594 " fill-rule="nonzero"/></g></g><g fill="#351e66" fill-opacity="1"><g transform="translate(97.260929, 221.647017)"><g><path d="M 87.15625 -82.890625 L 87.15625 0 L 11.953125 0 C 9.671875 0 7.695312 -0.804688 6.03125 -2.421875 C 4.375 -4.046875 3.546875 -6.039062 3.546875 -8.40625 L 3.546875 -29.953125 C 3.546875 -32.722656 4.273438 -35.3125 5.734375 -37.71875 C 7.203125 -40.125 9.195312 -42 11.71875 -43.34375 L 76.734375 -77.09375 L 9.46875 -49.265625 C 8.757812 -48.953125 8.050781 -48.851562 7.34375 -48.96875 C 6.632812 -49.082031 6.003906 -49.335938 5.453125 -49.734375 C 4.898438 -50.128906 4.441406 -50.640625 4.078125 -51.265625 C 3.722656 -51.898438 3.546875 -52.613281 3.546875 -53.40625 L 3.546875 -82.890625 Z M 84.203125 -78.75 L 29.84375 -18 C 28.582031 -16.582031 27.710938 -15.300781 27.234375 -14.15625 C 26.765625 -13.007812 27.117188 -11.882812 28.296875 -10.78125 C 29.085938 -10.144531 29.800781 -9.828125 30.4375 -9.828125 C 31.226562 -9.828125 31.976562 -10.140625 32.6875 -10.765625 C 33.394531 -11.398438 34.066406 -12.113281 34.703125 -12.90625 Z M 84.203125 -78.75 "/></g></g></g><g fill="#351e66" fill-opacity="1"><g transform="translate(187.970247, 221.647017)"><g><path d="M 86.21875 -82.890625 L 86.21875 -56.125 C 86.21875 -53.601562 85.367188 -51.804688 83.671875 -50.734375 C 81.972656 -49.671875 80.054688 -49.140625 77.921875 -49.140625 C 76.179688 -49.140625 74.484375 -49.457031 72.828125 -50.09375 L 10.65625 -74.96875 L 49.5 -54.46875 C 55.65625 -51.15625 58.832031 -47.5625 59.03125 -43.6875 C 59.226562 -39.820312 56.050781 -35.878906 49.5 -31.859375 L 13.265625 -9.359375 L 79.9375 -41.6875 C 80.488281 -42 81.082031 -42.15625 81.71875 -42.15625 C 82.894531 -42.15625 83.9375 -41.71875 84.84375 -40.84375 C 85.757812 -39.976562 86.21875 -38.914062 86.21875 -37.65625 L 86.21875 0 L 3.546875 0 L 3.546875 -82.890625 Z M 86.21875 -82.890625 "/></g></g></g><g clip-path="url(#f7b28bfaae)"><g clip-path="url(#bd026efb9e)"><g clip-path="url(#f05a795df5)"><path fill="#351e66" d="M 112.9375 104.980469 L 104.6875 122.308594 C 104.640625 122.40625 104.617188 122.515625 104.621094 122.625 C 104.621094 122.738281 104.648438 122.84375 104.703125 122.941406 C 104.753906 123.039062 104.828125 123.121094 104.917969 123.1875 C 105.011719 123.25 105.109375 123.292969 105.222656 123.308594 L 207.273438 137.496094 C 207.464844 137.519531 207.621094 137.609375 207.742188 137.765625 C 207.859375 137.917969 207.90625 138.09375 207.882812 138.285156 C 207.859375 138.480469 207.769531 138.636719 207.613281 138.753906 C 207.460938 138.875 207.285156 138.921875 207.09375 138.898438 L 98.070312 135.742188 C 97.804688 135.742188 97.601562 135.855469 97.460938 136.082031 L 88.714844 151.183594 C 88.65625 151.28125 88.578125 151.359375 88.480469 151.417969 C 88.386719 151.480469 88.28125 151.515625 88.167969 151.523438 C 88.054688 151.535156 87.945312 151.519531 87.839844 151.476562 C 87.734375 151.433594 87.644531 151.367188 87.570312 151.28125 L 79.210938 141.289062 C 79.027344 141.058594 78.792969 140.980469 78.503906 141.050781 L 56.636719 146.703125 C 56.476562 146.738281 56.324219 146.71875 56.179688 146.648438 C 56.035156 146.578125 55.925781 146.46875 55.855469 146.324219 C 55.78125 146.179688 55.761719 146.027344 55.796875 145.867188 C 55.832031 145.707031 55.910156 145.578125 56.035156 145.472656 L 72.222656 132.828125 C 72.363281 132.710938 72.445312 132.5625 72.464844 132.378906 C 72.488281 132.199219 72.449219 132.035156 72.34375 131.886719 L 64.65625 119.921875 C 64.492188 119.671875 64.484375 119.421875 64.640625 119.164062 C 64.792969 118.910156 65.015625 118.796875 65.3125 118.828125 L 87.828125 121.089844 C 88.0625 121.121094 88.269531 121.054688 88.445312 120.898438 L 111.894531 104.109375 C 112.027344 104.019531 112.167969 103.980469 112.328125 103.988281 C 112.484375 103.996094 112.625 104.050781 112.746094 104.152344 C 112.863281 104.253906 112.945312 104.382812 112.980469 104.535156 C 113.015625 104.6875 113 104.835938 112.9375 104.980469 Z M 112.9375 104.980469 " fill-opacity="1" fill-rule="nonzero"/></g></g></g></svg>