<svg xmlns="http://www.w3.org/2000/svg" xmlns:xlink="http://www.w3.org/1999/xlink" width="500" zoomAndPan="magnify" viewBox="0 0 375 374.999991" height="500" preserveAspectRatio="xMidYMid meet" version="1.0"><defs><g/></defs><g fill="#351e66" fill-opacity="1"><g transform="translate(93.504966, 268.358181)"><g><path d="M 180.625 -171.796875 L 180.625 0 L 24.78125 0 C 20.039062 0 15.953125 -1.675781 12.515625 -5.03125 C 9.078125 -8.382812 7.359375 -12.515625 7.359375 -17.421875 L 7.359375 -62.09375 C 7.359375 -67.820312 8.867188 -73.179688 11.890625 -78.171875 C 14.921875 -83.160156 19.054688 -87.046875 24.296875 -89.828125 L 159.03125 -159.765625 L 19.640625 -102.09375 C 18.160156 -101.4375 16.679688 -101.226562 15.203125 -101.46875 C 13.734375 -101.71875 12.425781 -102.25 11.28125 -103.0625 C 10.144531 -103.882812 9.207031 -104.953125 8.46875 -106.265625 C 7.726562 -107.578125 7.359375 -109.050781 7.359375 -110.6875 L 7.359375 -171.796875 Z M 174.5 -163.203125 L 61.84375 -37.296875 C 59.226562 -34.359375 57.425781 -31.703125 56.4375 -29.328125 C 55.457031 -26.953125 56.195312 -24.617188 58.65625 -22.328125 C 60.289062 -21.023438 61.765625 -20.375 63.078125 -20.375 C 64.710938 -20.375 66.265625 -21.023438 67.734375 -22.328125 C 69.203125 -23.640625 70.59375 -25.113281 71.90625 -26.75 Z M 174.5 -163.203125 "/></g></g></g></svg>